<?xml version="1.0" encoding="utf-8"?>

<!DOCTYPE svg PUBLIC "-//W3C//DTD SVG 1.1//EN" "http://www.w3.org/Graphics/SVG/1.1/DTD/svg11.dtd">
<svg version="1.1" id="Layer_1" xmlns="http://www.w3.org/2000/svg" xmlns:xlink="http://www.w3.org/1999/xlink" x="0px" y="0px"
	 viewBox="0 0 277.427 1633.728" enable-background="new 0 0 277.427 1633.728" xml:space="preserve">
<g>
	<polygon points="20.487,713.135 56.811,713.135 56.811,795.426 74.49,1616.864 92.331,795.426 92.331,713.135 128.494,713.135 
		128.494,684.848 20.487,684.848 	"/>
	<path d="M51.828,564.082c-18.001,0-33.913,12.697-33.913,37.288v67.665h110.579v-35.52H88.152v-13.179l40.342-19.609v-39.86
		l-46.289,24.591C76.902,571.154,64.686,564.082,51.828,564.082z M63.561,633.515H43.149V610.21c0-5.465,4.179-9.965,10.126-9.965
		c5.947,0,10.286,4.5,10.286,9.965V633.515z"/>
	<path d="M82.045,436.625H15.987v35.52h65.576c11.894,0,20.412,6.59,20.412,19.608c0,13.019-8.518,19.448-20.412,19.448H15.987
		v35.52h66.058c30.538,0,46.45-20.412,46.45-55.129S112.582,436.625,82.045,436.625z"/>
	<polygon points="128.494,349.189 46.203,349.189 46.203,313.026 17.916,313.026 17.916,421.033 46.203,421.033 46.203,384.709 
		128.494,384.709 261.44,367.03 	"/>
	<polygon points="128.494,261.272 86.545,261.272 86.545,222.217 128.494,222.217 128.494,186.696 86.545,186.696 86.545,16.864 
		58.257,16.864 58.257,186.696 17.916,186.696 17.916,222.217 58.257,222.217 58.257,261.272 17.916,261.272 17.916,296.793 
		128.494,296.793 	"/>
</g>
</svg>
